<svg id="Capa_1" enable-background="new 0 0 511.999 511.999" height="512" viewBox="0 0 511.999 511.999" width="512" xmlns="http://www.w3.org/2000/svg"><g><path d="m481.642 189.005-39.143-34.21v-112.057h1.987c7.463 0 13.535-6.072 13.535-13.536v-15.666c.001-7.464-6.071-13.536-13.534-13.536h-69.263c-7.463 0-13.535 6.072-13.535 13.536v15.667c0 7.463 6.072 13.536 13.535 13.536h1.987v54.996l-104.759-91.559c-9.379-8.196-23.525-8.197-32.904 0l-209.191 182.829c-10.404 9.092-11.467 24.87-2.371 35.276 9.077 10.386 24.903 11.437 35.275 2.372l6.239-5.453v275.799h-14c-4.143 0-7.5 3.358-7.5 7.5s3.357 7.5 7.5 7.5h401c4.143 0 7.5-3.358 7.5-7.5s-3.357-7.5-7.5-7.5h-14v-275.798l6.238 5.452c10.383 9.071 26.206 8.007 35.275-2.373 9.094-10.402 8.035-26.181-2.371-35.275zm-104.953-161.267v-12.738h66.333v12.738c-7.892 0-58.692 0-66.333 0zm50.811 15v98.947l-35.288-30.841v-68.106zm0 454.261h-343v-288.909l171.5-149.888 171.5 149.889zm45.219-282.59c-3.627 4.152-9.959 4.578-14.11.949l-18.672-16.319-.001-.001c-7.77-6.791-168.591-147.346-176.232-154.024-4.391-3.837-11.015-3.837-15.407.001l-194.907 170.343c-4.152 3.629-10.483 3.202-14.111-.949-3.63-4.156-3.22-10.465.949-14.11l209.19-182.828c3.752-3.279 9.41-3.279 13.162 0 9.985 8.726 159.932 139.777 167.483 146.377l41.707 36.451c4.164 3.639 4.587 9.948.949 14.11z"/><path d="m119.349 234.714v148.782c0 5.746 1.589 11.126 4.345 15.731h-4.585c-9.341 0-16.94 7.6-16.94 16.941 0 19.223 15.64 34.863 34.863 34.863h101.468c4.143 0 7.5-3.358 7.5-7.5s-3.357-7.5-7.5-7.5h-101.468c-10.953 0-19.863-8.911-19.863-19.863 0-1.07.87-1.941 1.94-1.941h273.781c1.07 0 1.94.871 1.94 1.941 0 10.952-8.91 19.863-19.862 19.863h-101.468c-4.143 0-7.5 3.358-7.5 7.5s3.357 7.5 7.5 7.5h101.469c19.223 0 34.862-15.64 34.862-34.863 0-9.341-7.6-16.941-16.94-16.941h-4.585c2.756-4.605 4.345-9.985 4.345-15.731v-148.782c0-16.946-13.786-30.732-30.731-30.732h-211.838c-16.947 0-30.733 13.786-30.733 30.732zm258.301 0v148.782c0 8.674-7.057 15.731-15.731 15.731h-211.837c-8.675 0-15.732-7.057-15.732-15.731v-148.782c0-8.675 7.058-15.732 15.732-15.732h211.837c8.674 0 15.731 7.057 15.731 15.732z"/><path d="m319.907 342.378h-127.815c-4.143 0-7.5 3.358-7.5 7.5s3.357 7.5 7.5 7.5h127.814c4.143 0 7.5-3.358 7.5-7.5s-3.357-7.5-7.499-7.5z"/><path d="m319.907 315.196h-127.815c-4.143 0-7.5 3.358-7.5 7.5s3.357 7.5 7.5 7.5h127.814c4.143 0 7.5-3.358 7.5-7.5s-3.357-7.5-7.499-7.5z"/><path d="m319.907 288.013h-127.815c-4.143 0-7.5 3.358-7.5 7.5s3.357 7.5 7.5 7.5h127.814c4.143 0 7.5-3.358 7.5-7.5s-3.357-7.5-7.499-7.5z"/><path d="m192.092 275.831h63.908c4.143 0 7.5-3.358 7.5-7.5s-3.357-7.5-7.5-7.5h-63.907c-4.143 0-7.5 3.358-7.5 7.5s3.357 7.5 7.499 7.5z"/><path d="m149.349 371.538c0 6.997 5.692 12.689 12.689 12.689h187.922c6.997 0 12.689-5.692 12.689-12.689v-42.774c0-4.142-3.357-7.5-7.5-7.5s-7.5 3.358-7.5 7.5v40.464h-183.3v-120.246h183.301v44.781c0 4.142 3.357 7.5 7.5 7.5s7.5-3.358 7.5-7.5v-47.092c0-6.997-5.692-12.689-12.689-12.689h-187.922c-6.997 0-12.689 5.692-12.689 12.689v124.867z"/></g></svg>